<svg width="31" height="31" viewBox="0 0 31 31" fill="none" xmlns="http://www.w3.org/2000/svg">
<mask id="path-1-inside-1_2781_792" fill="white">
<path d="M17.6123 4.69336C18.717 4.956 19.7565 5.38582 20.7012 5.95801L24.541 3.17285L27.0469 5.67773L24.2734 9.47559C24.8726 10.4291 25.327 11.4817 25.6064 12.6045L30.2197 13.3379V16.8809L25.667 17.5908C25.4076 18.7562 24.9638 19.8513 24.3623 20.8418L27.0469 24.541L24.541 27.0459L20.8887 24.3789C19.8879 25.0135 18.7771 25.488 17.5898 25.7676L16.8818 30.2197H13.3389L12.6455 25.7764C11.4533 25.5002 10.3373 25.0283 9.33203 24.3945L5.67773 27.0469L3.17285 24.542L5.85156 20.8711C5.243 19.876 4.7935 18.7743 4.53125 17.6016L0 16.8818V13.3389L4.58398 12.623C4.86336 11.4918 5.32122 10.4315 5.9248 9.47168L3.17285 5.67871L5.67773 3.17285L9.49414 5.95898C10.4411 5.38524 11.4831 4.95403 12.5908 4.69141L13.3379 0H16.8809L17.6123 4.69336Z"/>
</mask>
<path d="M17.6123 4.69336L15.6362 5.00134L15.843 6.32846L17.1497 6.63912L17.6123 4.69336ZM20.7012 5.95801L19.665 7.66869L20.8007 8.35653L21.8755 7.57697L20.7012 5.95801ZM24.541 3.17285L25.955 1.75836L24.7481 0.551953L23.3667 1.55389L24.541 3.17285ZM27.0469 5.67773L28.662 6.85724L29.6721 5.47408L28.4608 4.26325L27.0469 5.67773ZM24.2734 9.47559L22.6583 8.29608L21.8585 9.3913L22.58 10.5396L24.2734 9.47559ZM25.6064 12.6045L23.6657 13.0875L23.9853 14.3719L25.2924 14.5797L25.6064 12.6045ZM30.2197 13.3379H32.2197V11.6307L30.5337 11.3627L30.2197 13.3379ZM30.2197 16.8809L30.5279 18.857L32.2197 18.5931V16.8809H30.2197ZM25.667 17.5908L25.3588 15.6147L24.0111 15.8249L23.7148 17.1563L25.667 17.5908ZM24.3623 20.8418L22.6528 19.8037L21.9626 20.9403L22.7436 22.0165L24.3623 20.8418ZM27.0469 24.541L28.4608 25.9555L29.6685 24.7483L28.6655 23.3663L27.0469 24.541ZM24.541 27.0459L23.3616 28.6611L24.7442 29.6707L25.955 28.4604L24.541 27.0459ZM20.8887 24.3789L22.0681 22.7637L20.968 21.9604L19.8176 22.6899L20.8887 24.3789ZM17.5898 25.7676L17.1314 23.8208L15.8254 24.1284L15.6147 25.4535L17.5898 25.7676ZM16.8818 30.2197V32.2197H18.5889L18.857 30.5338L16.8818 30.2197ZM13.3389 30.2197L11.3628 30.5281L11.6268 32.2197H13.3389V30.2197ZM12.6455 25.7764L14.6216 25.468L14.4132 24.1329L13.0968 23.8279L12.6455 25.7764ZM9.33203 24.3945L10.3986 22.7027L9.25311 21.9805L8.15723 22.7759L9.33203 24.3945ZM5.67773 27.0469L4.26352 28.4611L5.47079 29.6684L6.85253 28.6655L5.67773 27.0469ZM3.17285 24.542L1.55726 23.3631L0.548248 24.7458L1.75864 25.9562L3.17285 24.542ZM5.85156 20.8711L7.46716 22.05L8.25588 20.9692L7.55779 19.8277L5.85156 20.8711ZM4.53125 17.6016L6.48305 17.1651L6.18661 15.8394L4.84499 15.6263L4.53125 17.6016ZM0 16.8818H-2V18.5892L-0.313739 18.8571L0 16.8818ZM0 13.3389L-0.308574 11.3628L-2 11.6269V13.3389H0ZM4.58398 12.623L4.89256 14.5991L6.20675 14.3939L6.52565 13.1026L4.58398 12.623ZM5.9248 9.47168L7.61786 10.5364L8.33771 9.39166L7.54361 8.29717L5.9248 9.47168ZM3.17285 5.67871L1.75836 4.26477L0.551785 5.47182L1.55405 6.85322L3.17285 5.67871ZM5.67773 3.17285L6.857 1.55751L5.4739 0.547788L4.26325 1.75891L5.67773 3.17285ZM9.49414 5.95898L8.31487 7.57433L9.391 8.35994L10.5305 7.66951L9.49414 5.95898ZM12.5908 4.69141L13.0522 6.63746L14.3553 6.32852L14.5659 5.00593L12.5908 4.69141ZM13.3379 0V-2H11.6312L11.3628 -0.314522L13.3379 0ZM16.8809 0L18.857 -0.307976L18.5933 -2H16.8809V0ZM17.6123 4.69336L17.1497 6.63912C18.0509 6.85339 18.897 7.20352 19.665 7.66869L20.7012 5.95801L21.7373 4.24733C20.6159 3.56813 19.3831 3.05862 18.0749 2.74759L17.6123 4.69336ZM20.7012 5.95801L21.8755 7.57697L25.7153 4.79182L24.541 3.17285L23.3667 1.55389L19.5269 4.33904L20.7012 5.95801ZM24.541 3.17285L23.1271 4.58734L25.6329 7.09222L27.0469 5.67773L28.4608 4.26325L25.955 1.75836L24.541 3.17285ZM27.0469 5.67773L25.4317 4.49823L22.6583 8.29608L24.2734 9.47559L25.8886 10.6551L28.662 6.85724L27.0469 5.67773ZM24.2734 9.47559L22.58 10.5396C23.0686 11.3173 23.4383 12.1742 23.6657 13.0875L25.6064 12.6045L27.5472 12.1215C27.2157 10.7892 26.6765 9.54098 25.9669 8.41155L24.2734 9.47559ZM25.6064 12.6045L25.2924 14.5797L29.9057 15.3131L30.2197 13.3379L30.5337 11.3627L25.9205 10.6293L25.6064 12.6045ZM30.2197 13.3379H28.2197V16.8809H30.2197H32.2197V13.3379H30.2197ZM30.2197 16.8809L29.9116 14.9047L25.3588 15.6147L25.667 17.5908L25.9752 19.5669L30.5279 18.857L30.2197 16.8809ZM25.667 17.5908L23.7148 17.1563C23.5029 18.1082 23.1412 18.9995 22.6528 19.8037L24.3623 20.8418L26.0718 21.8799C26.7864 20.7031 27.3124 19.4041 27.6192 18.0253L25.667 17.5908ZM24.3623 20.8418L22.7436 22.0165L25.4282 25.7157L27.0469 24.541L28.6655 23.3663L25.981 19.6671L24.3623 20.8418ZM27.0469 24.541L25.6329 23.1265L23.1271 25.6314L24.541 27.0459L25.955 28.4604L28.4608 25.9555L27.0469 24.541ZM24.541 27.0459L25.7205 25.4307L22.0681 22.7637L20.8887 24.3789L19.7092 25.9941L23.3616 28.6611L24.541 27.0459ZM20.8887 24.3789L19.8176 22.6899C19.0017 23.2072 18.0975 23.5933 17.1314 23.8208L17.5898 25.7676L18.0483 27.7143C19.4568 27.3826 20.7742 26.8197 21.9597 26.0679L20.8887 24.3789ZM17.5898 25.7676L15.6147 25.4535L14.9067 29.9056L16.8818 30.2197L18.857 30.5338L19.565 26.0817L17.5898 25.7676ZM16.8818 30.2197V28.2197H13.3389V30.2197V32.2197H16.8818V30.2197ZM13.3389 30.2197L15.315 29.9114L14.6216 25.468L12.6455 25.7764L10.6694 26.0847L11.3628 30.5281L13.3389 30.2197ZM12.6455 25.7764L13.0968 23.8279C12.126 23.6031 11.2177 23.219 10.3986 22.7027L9.33203 24.3945L8.26547 26.0864C9.45701 26.8376 10.7805 27.3974 12.1942 27.7248L12.6455 25.7764ZM9.33203 24.3945L8.15723 22.7759L4.50293 25.4283L5.67773 27.0469L6.85253 28.6655L10.5068 26.0131L9.33203 24.3945ZM5.67773 27.0469L7.09195 25.6327L4.58707 23.1278L3.17285 24.542L1.75864 25.9562L4.26352 28.4611L5.67773 27.0469ZM3.17285 24.542L4.78844 25.7209L7.46716 22.05L5.85156 20.8711L4.23597 19.6922L1.55726 23.3631L3.17285 24.542ZM5.85156 20.8711L7.55779 19.8277C7.06348 19.0194 6.69718 18.1227 6.48305 17.1651L4.53125 17.6016L2.57945 18.038C2.88982 19.426 3.42252 20.7326 4.14533 21.9145L5.85156 20.8711ZM4.53125 17.6016L4.84499 15.6263L0.313739 14.9066L0 16.8818L-0.313739 18.8571L4.21751 19.5768L4.53125 17.6016ZM0 16.8818H2V13.3389H0H-2V16.8818H0ZM0 13.3389L0.308574 15.3149L4.89256 14.5991L4.58398 12.623L4.27541 10.647L-0.308574 11.3628L0 13.3389ZM4.58398 12.623L6.52565 13.1026C6.75267 12.1833 7.1251 11.32 7.61786 10.5364L5.9248 9.47168L4.23175 8.407C3.51735 9.54303 2.97404 10.8003 2.64232 12.1435L4.58398 12.623ZM5.9248 9.47168L7.54361 8.29717L4.79166 4.5042L3.17285 5.67871L1.55405 6.85322L4.306 10.6462L5.9248 9.47168ZM3.17285 5.67871L4.58734 7.09265L7.09222 4.58679L5.67773 3.17285L4.26325 1.75891L1.75836 4.26477L3.17285 5.67871ZM5.67773 3.17285L4.49847 4.78819L8.31487 7.57433L9.49414 5.95898L10.6734 4.34364L6.857 1.55751L5.67773 3.17285ZM9.49414 5.95898L10.5305 7.66951C11.3009 7.20272 12.1492 6.85155 13.0522 6.63746L12.5908 4.69141L12.1294 2.74535C10.817 3.0565 9.58122 3.56776 8.45775 4.24846L9.49414 5.95898ZM12.5908 4.69141L14.5659 5.00593L15.313 0.314522L13.3379 0L11.3628 -0.314522L10.6157 4.37688L12.5908 4.69141ZM13.3379 0V2H16.8809V0V-2H13.3379V0ZM16.8809 0L14.9047 0.307976L15.6362 5.00134L17.6123 4.69336L19.5884 4.38538L18.857 -0.307976L16.8809 0Z" fill="#596A81" mask="url(#path-1-inside-1_2781_792)"/>
<circle cx="15.0984" cy="15.2283" r="6.08965" stroke="#596A81" stroke-width="2"/>
<circle cx="15.0981" cy="15.2284" r="2.73672" fill="#596A81"/>
</svg>
